<?xml version="1.0" encoding="utf-8"?>
<!-- Generator: Adobe Illustrator 26.5.0, SVG Export Plug-In . SVG Version: 6.00 Build 0)  -->
<svg version="1.1" id="Layer_1" xmlns="http://www.w3.org/2000/svg" xmlns:xlink="http://www.w3.org/1999/xlink" x="0px" y="0px"
	 viewBox="0 0 32 32" style="enable-background:new 0 0 32 32;" xml:space="preserve">
<style type="text/css">
	.st0{fill:#00A12F;}
</style>
<path class="st0" d="M15.6,3.3c-1.3,0-2.7,1.1-2.7,2.5v4.3l-2.6,3L10.2,13c-0.2,0-0.4-0.1-0.6-0.1H4.8c-0.8,0-1.4,0.6-1.4,1.4v11.2
	C3.3,26.4,4,27,4.8,27h4.8c0.3,0,0.5-0.1,0.8-0.2l0,0l0.1-0.1l0.1,0.1c0.7,1.1,2,1.8,3.3,1.8l0,0h8.5c2,0,3.7-1.5,4.1-3.4l0,0
	l2.1-7.8l0,0c0.1-0.3,0.1-0.6,0.1-0.9c0-1.1-0.4-2.1-1-2.8l0,0c-0.8-0.9-1.9-1.5-3.1-1.5H20V7.7c0,0,0,0,0-0.1
	C19.8,5.3,18,3.4,15.6,3.3L15.6,3.3L15.6,3.3z M4.6,25.7V14.2h5.1v11.5H4.6z M24.5,13.4c0.9,0,1.6,0.4,2.2,1l0,0
	c0.4,0.5,0.7,1.2,0.7,2c0,0.2,0,0.4-0.1,0.6l0,0l0,0l-2.1,7.8l0,0c-0.2,1.4-1.4,2.4-2.8,2.4l0,0h-8.5c-1.6-0.1-2.9-1.4-2.9-3v-0.1
	l0,0v-9.9l3.1-3.6c0.1-0.1,0.2-0.3,0.2-0.4V5.8c0-0.7,0.8-1.2,1.4-1.2c1.6,0,2.9,1.4,2.9,3c0,0,0,0,0,0.1l0,0v5.1
	c0,0.2,0.1,0.3,0.2,0.5l0,0c0.1,0.1,0.3,0.2,0.5,0.2l0,0l0,0L24.5,13.4z"/>
</svg>
