<?xml version="1.0" encoding="utf-8"?>
<!-- Generator: Adobe Illustrator 26.5.0, SVG Export Plug-In . SVG Version: 6.00 Build 0)  -->
<svg version="1.1" id="Layer_1" xmlns="http://www.w3.org/2000/svg" xmlns:xlink="http://www.w3.org/1999/xlink" x="0px" y="0px"
	 viewBox="0 0 32 32" style="enable-background:new 0 0 32 32;" xml:space="preserve">
<style type="text/css">
	.st0{fill:#B5B5B5;}
</style>
<path class="st0" d="M18.8,26.7L18.8,26.7c0.2,0.3,0.6,0.6,1.1,0.6c0.3,0,0.5-0.1,0.7-0.2l0,0c4.5-3.1,7.4-8.1,7.4-13.9
	c0,0,0-0.1,0-0.1v0c0-4.2-2.3-6.6-5-6.6c-2.4,0-4.1,1.8-4.1,4.3c0,2.4,1.6,4.1,4,4.1c0.1,0,0.2,0,0.3,0l0,0c0,0,0.1,0,0.2,0
	c0.7,0,1.3,0.6,1.3,1.3c0,0.1,0,0.2,0,0.3l0,0c-0.7,3.6-2.7,6.6-5.5,8.6l0,0c-0.3,0.2-0.5,0.6-0.5,1C18.6,26.2,18.7,26.5,18.8,26.7
	L18.8,26.7L18.8,26.7z M8.7,14.7c0.1,0,0.2,0,0.3,0l0,0c0,0,0.1,0,0.2,0c0.7,0,1.3,0.6,1.3,1.3c0,0.1,0,0.2,0,0.3l0,0
	c-0.7,3.6-2.7,6.6-5.5,8.6l0,0c-0.3,0.2-0.5,0.6-0.5,1c0,0.3,0.1,0.5,0.2,0.7l0,0c0.2,0.3,0.6,0.6,1.1,0.6c0.3,0,0.5-0.1,0.7-0.2
	l0,0c4.5-3.1,7.4-8.1,7.4-13.9c0,0,0-0.1,0-0.1v0c0-4.2-2.3-6.6-5-6.6c-2.4,0-4.1,1.8-4.1,4.3C4.7,13,6.3,14.7,8.7,14.7L8.7,14.7z"
	/>
</svg>
