<?xml version="1.0" encoding="utf-8"?>
<!-- Generator: Adobe Illustrator 26.5.0, SVG Export Plug-In . SVG Version: 6.00 Build 0)  -->
<svg version="1.1" id="Layer_1" xmlns="http://www.w3.org/2000/svg" xmlns:xlink="http://www.w3.org/1999/xlink" x="0px" y="0px"
	 viewBox="0 0 32 32" style="enable-background:new 0 0 32 32;" xml:space="preserve">
<style type="text/css">
	.st0{fill:#FFFFFF;}
</style>
<path class="st0" d="M11,29l-1.3-1.3C9.3,27.3,9,26.7,9,26.1c0,0,0,0,0,0v0c0,0,0,0,0,0c0-0.6,0.3-1.1,0.7-1.5l0,0l8.5-8.5L9.7,7.5
	C9.3,7.1,9,6.6,9,5.9s0.3-1.2,0.7-1.6L11,3.1c0.4-0.4,0.9-0.7,1.5-0.7c0,0,0,0,0.1,0h0c0,0,0,0,0,0c0.6,0,1.2,0.3,1.6,0.7l0,0
	l11.4,11.4c0.4,0.4,0.6,0.9,0.6,1.5c0,0,0,0,0,0v0c0,0,0,0,0,0c0,0.6-0.2,1.2-0.6,1.6l0,0L14.2,28.9c-0.4,0.4-0.9,0.7-1.6,0.7
	c0,0,0,0,0,0h0c0,0,0,0,0,0C11.9,29.6,11.4,29.4,11,29L11,29L11,29z"/>
</svg>
